<svg  width="600" height="600" xmlns="http://www.w3.org/2000/svg" ><path  d="
 M 595 71 M 594 72 M 594 74
 L 592 74 L 591 73
 L 590 74 C 590 76, 590, 78, 589, 79
 C 587 81, 586, 82, 586, 83
 L 585 85 L 585 87 L 587 88
 L 585 89 L 584 88 L 584 88
 L 582 89 C 580 90, 580, 90, 579, 92
 L 578 94 L 578 95
 L 579 97
 L 580 99 L 578 99 L 579 101
 L 577 101 L 576 100
 L 575 101 L 574 102
 L 573 104 L 574 104
 L 575 106
 L 572 106 C 572 109, 569, 106, 568, 108
 L 567 109 L 566 108
 L 565 109 L 566 109
 L 567 111 L 566 112
 L 564 113
 L 562 113 L 564 113 L 565 115
 L 563 116 L 562 117 L 562 119
 L 560 120 L 559 120
 L 556 121 C 554 124, 550, 127, 548, 130
 L 546 131 L 546 132 L 547 134
 L 545 135 L 544 135
 L 543 136 L 544 137
 L 544 139
 L 542 139
 L 541 139
 L 539 139
 L 539 140 C 538 142, 537, 143, 536, 145
 L 535 146 L 535 147
 L 534 149
 L 532 149 L 531 148
 L 529 148 L 531 148 L 532 150
 L 531 152 L 530 153 L 529 153
 L 528 154 C 527 155, 526, 156, 527, 159
 C 523 159, 522, 159, 521, 160
 L 520 161 L 520 162 L 522 162
 L 522 164 L 521 165
 L 520 166 C 520 167, 518, 167, 518, 168
 C 515 170, 515, 168, 513, 167
 L 513 169
 L 512 171 L 511 171
 L 511 172 L 512 173
 L 510 174 L 509 174 L 509 175
 L 506 175 L 506 176 L 507 178
 L 505 179 C 504 183, 501, 180, 499, 182
 C 496 179, 492, 176, 491, 172
 C 489 169, 489, 168, 489, 167
 L 489 166
 L 488 167 C 487 169, 487, 171, 487, 173
 L 487 176
 L 485 176 C 485 178, 485, 179, 486, 181
 L 484 182 L 485 184 L 484 185
 L 482 186 C 483 188, 482, 190, 483, 192
 L 482 194
 L 480 195 C 481 198, 480, 199, 479, 200
 L 479 203
 L 477 203 C 478 205, 477, 207, 478, 209
 L 477 211
 L 476 213 C 475 213, 475, 214, 475, 215
 L 474 217 L 475 219 L 474 220
 L 472 221 C 474 226, 469, 228, 471, 233
 L 469 234 L 470 236 L 469 237
 L 467 238 C 467 240, 467, 241, 468, 243
 C 465 244, 465, 246, 463, 246
 L 462 247
 L 460 246 C 458 246, 456, 246, 453, 245
 C 450 244, 449, 245, 449, 244
 C 444 242, 441, 242, 439, 243
 L 437 242
 L 435 240 C 434 241, 432, 240, 431, 241
 C 427 239, 425, 240, 424, 239
 C 416 239, 413, 234, 406, 236
 C 403 234, 402, 235, 402, 234
 C 393 234, 389, 229, 382, 231
 L 380 229 L 379 230 L 379 229
 L 376 227 C 374 227, 371, 227, 369, 228
 L 367 227
 L 366 226 C 364 226, 362, 226, 359, 225
 C 356 224, 354, 225, 353, 224
 C 349 222, 346, 222, 344, 223
 L 342 222
 L 341 221 C 339 221, 337, 221, 334, 220
 C 331 219, 329, 220, 328, 219
 C 319 219, 317, 214, 310, 216
 C 307 214, 306, 215, 306, 214
 C 297 214, 294, 209, 286, 211
 L 285 210 L 284 209
 L 281 207 C 279 207, 276, 207, 274, 208
 L 273 209 L 272 210
 L 270 210 C 271 212, 270, 214, 271, 216
 L 270 218 L 269 219
 L 267 220 C 267 222, 267, 223, 268, 225
 L 267 227
 L 266 229 C 265 229, 265, 230, 265, 231
 L 265 234 L 264 235
 L 262 236 C 263 238, 262, 240, 263, 242
 L 262 244
 L 261 246 L 261 247
 L 262 248 C 264 248, 266, 248, 267, 247
 C 271 248, 272, 250, 273, 250
 C 276 250, 277, 250, 278, 250
 C 279 249, 278, 250, 278, 249
 L 276 248
 L 277 246 C 276 244, 278, 244, 277, 242
 C 278 239, 278, 238, 278, 237
 L 280 236
 L 281 234 C 280 230, 282, 228, 283, 226
 C 286 224, 288, 224, 289, 223
 L 292 225 L 293 225
 L 294 225 C 296 226, 298, 225, 300, 226
 C 303 227, 304, 228, 307, 227
 C 310 228, 311, 228, 313, 229
 L 315 230 L 316 230
 L 317 231 C 324 230, 329, 234, 335, 234
 C 340 234, 341, 236, 344, 235
 C 346 236, 347, 236, 348, 236
 L 351 238 L 352 238
 L 353 238 C 355 238, 356, 238, 358, 239
 C 362 239, 362, 241, 365, 240
 C 368 241, 369, 241, 371, 242
 L 373 243 L 374 243
 L 375 244 C 378 243, 380, 245, 383, 244
 L 385 246
 L 387 247 C 389 247, 391, 247, 392, 246
 C 395 249, 396, 248, 398, 249
 C 401 249, 402, 249, 404, 250
 L 406 251
 L 408 252 C 408 251, 409, 251, 410, 251
 L 412 252 L 413 252 L 415 253
 L 415 255
 L 412 256 C 410 255, 407, 257, 405, 255
 L 405 256 L 404 257 L 403 257
 L 402 258 L 404 258 L 405 260
 L 403 261 L 402 261 L 402 262
 L 399 262 L 400 264 L 399 265
 L 398 266
 L 399 265 L 400 264
 L 401 264 L 401 265 L 402 267
 L 401 269 C 400 270, 399, 269, 398, 270
 C 396 273, 396, 274, 397, 276
 L 395 277
 L 393 274 L 393 273 L 394 273
 L 392 273 C 391 273, 391, 274, 391, 275
 L 390 276 L 390 275
 L 388 273 L 387 272 L 387 272
 L 385 270 C 378 272, 374, 267, 367, 269
 L 367 270
 L 368 271 C 376 269, 378, 274, 386, 272
 L 387 273 L 387 274 L 388 276
 L 389 278 C 389 281, 387, 283, 388, 287
 L 387 289
 L 385 290 C 386 293, 385, 294, 384, 295
 L 384 298
 L 382 298 C 383 300, 382, 302, 383, 304
 L 382 306
 L 380 306 C 380 308, 380, 309, 381, 311
 L 379 312 L 380 314 L 379 315
 L 377 316 C 379 321, 374, 323, 376, 328
 L 374 329 L 375 331 L 374 332
 L 372 333 C 372 335, 372, 336, 373, 338
 L 372 340
 L 370 341 L 370 342 L 371 344
 L 370 346 L 370 347
 L 368 348 C 364 347, 360, 347, 356, 347
 L 355 347
 L 352 345 C 351 345, 350, 345, 349, 346
 C 345 344, 344, 345, 344, 344
 C 339 342, 337, 342, 334, 342
 L 333 342
 L 332 341 C 330 341, 328, 341, 325, 340
 L 323 339 L 322 340 L 322 339
 L 319 337 C 317 337, 314, 337, 312, 338
 L 310 337
 L 308 335 C 307 336, 305, 335, 304, 336
 C 299 335, 298, 334, 297, 333
 C 293 333, 291, 333, 288, 332
 L 287 332
 L 284 330 C 283 330, 282, 330, 281, 331
 C 277 329, 275, 330, 274, 329
 C 270 327, 268, 327, 265, 327
 L 264 327
 L 262 325 C 261 326, 259, 325, 258, 326
 C 254 324, 253, 325, 253, 324
 C 248 322, 246, 322, 243, 322
 L 242 322
 L 241 321
 L 240 322 L 238 322 L 239 324
 L 237 325 C 237 327, 237, 328, 238, 330
 L 237 332
 L 236 333 C 235 333, 235, 334, 235, 335
 L 234 337 L 235 339 L 234 340
 L 233 342 C 232 342, 232, 343, 232, 344
 L 232 347
 L 231 349 C 230 349, 230, 350, 230, 351
 L 230 354 L 229 355
 L 227 356 C 227 358, 227, 359, 228, 361
 L 227 363
 L 226 364 L 226 365
 L 226 366 C 234 364, 237, 369, 245, 367
 L 247 369 L 247 370
 L 248 371 C 256 369, 259, 374, 267, 372
 L 269 374 L 270 375
 L 270 376 C 278 374, 282, 379, 290, 377
 L 292 379 L 292 380
 L 293 381 C 301 379, 303, 384, 310, 382
 L 311 383 L 313 383 L 314 385
 L 315 386 C 322 384, 325, 389, 332, 387
 L 334 389 L 335 390
 L 337 391 C 339 390, 341, 390, 343, 390
 L 346 392
 L 346 393 C 350 392, 352, 394, 355, 394
 L 358 395
 L 360 396 C 362 395, 364, 395, 366, 395
 L 369 397
 L 369 398 C 373 397, 374, 399, 378, 398
 L 380 400
 L 381 401 C 383 400, 385, 400, 387, 400
 L 390 402
 L 391 403 C 394 402, 396, 404, 398, 404
 L 401 405
 L 403 406 C 405 406, 407, 406, 408, 405
 L 411 407
 L 412 407 C 414 407, 415, 407, 417, 408
 C 421 407, 421, 411, 423, 411
 C 426 415, 425, 418, 424, 421
 L 424 424
 L 423 426 C 422 426, 422, 427, 422, 428
 C 420 433, 421, 437, 419, 440
 C 417 443, 417, 444, 418, 446
 C 415 450, 416, 454, 414, 457
 C 412 460, 412, 461, 413, 463
 L 412 465
 L 410 466 C 411 469, 409, 470, 409, 472
 L 409 475
 L 407 476 C 407 478, 407, 479, 408, 481
 C 405 485, 405, 489, 404, 492
 C 399 492, 397, 492, 394, 492
 L 393 492
 L 391 490 C 388 491, 386, 489, 384, 489
 L 382 489
 L 380 488 C 378 488, 376, 488, 373, 487
 L 372 487
 L 370 485 C 366 486, 365, 484, 361, 485
 L 360 484
 L 357 482 C 356 483, 354, 482, 353, 483
 L 351 482 L 350 482
 L 347 481 C 345 481, 344, 479, 341, 480
 L 340 479
 L 338 478 C 336 478, 334, 478, 331, 477
 L 330 477
 L 328 475 C 325 476, 323, 474, 321, 474
 L 319 474
 L 318 473 C 316 473, 314, 473, 311, 472
 L 310 472
 L 307 470 C 306 470, 305, 470, 304, 471
 C 300 469, 299, 470, 299, 469
 C 294 467, 292, 467, 289, 467
 L 288 467
 L 286 465 C 283 466, 281, 464, 279, 464
 L 277 464
 L 275 463 C 273 463, 271, 463, 268, 462
 L 267 462
 L 265 460 C 262 461, 260, 459, 258, 459
 L 256 459
 L 254 458 C 252 458, 250, 458, 247, 457
 L 246 457
 L 244 456 C 242 455, 241, 455, 240, 455
 C 237 455, 236, 453, 235, 453
 C 231 453, 229, 452, 228, 453
 L 226 452
 L 224 450 C 220 451, 218, 450, 216, 449
 L 214 449
 L 213 448 C 210 447, 208, 447, 205, 447
 L 204 447
 L 201 445 C 200 445, 199, 445, 198, 446
 C 194 444, 192, 445, 191, 444
 C 188 443, 186, 443, 183, 442
 L 182 442
 L 180 440 C 179 440, 178, 440, 177, 441
 C 173 439, 172, 440, 172, 439
 C 168 438, 166, 438, 163, 437
 L 162 437
 L 159 435 C 158 435, 157, 435, 156, 436
 C 152 434, 151, 435, 151, 434
 C 147 433, 145, 433, 142, 432
 L 141 432
 L 138 430 C 137 431, 135, 430, 134, 431
 C 130 429, 129, 430, 129, 429
 C 124 427, 122, 427, 119, 427
 L 118 427
 L 116 426 L 115 426
 L 115 426 C 117 427, 118, 430, 121, 431
 C 124 436, 125, 439, 127, 441
 C 132 442, 131, 446, 135, 444
 L 137 446
 L 135 447 C 131 446, 127, 446, 123, 446
 L 122 446 L 121 445
 L 120 446
 L 118 447
 L 116 447 L 114 447 L 115 449
 L 112 449 L 111 451 L 111 450
 L 109 450 L 109 451 L 110 453
 L 108 454 L 107 453
 L 105 453 L 104 454
 L 102 455 C 100 454, 99, 454, 98, 454
 L 96 455 L 95 456 L 95 458
 L 93 459 C 90 459, 89, 456, 88, 455
 L 87 457 L 87 458
 L 85 459 C 84 460, 82, 459, 81, 460
 L 79 461 L 78 461 L 78 462
 L 76 461
 L 76 461
 L 75 463 L 74 464
 L 72 465 C 71 466, 69, 466, 68, 464
 C 66 467, 64, 467, 65, 469
 L 63 470 L 62 469
 L 59 468 L 59 469 L 60 471
 L 57 471 L 56 470 L 56 470
 L 55 471 L 55 472
 L 54 474
 L 51 473 L 50 472 L 50 472
 L 48 473
 L 48 473 L 49 473 L 51 474
 L 52 476 L 51 477
 L 48 477 L 47 476 L 47 476
 L 45 475 L 45 476
 L 43 477 C 40 476, 38, 477, 37, 478
 C 33 478, 32, 479, 31, 480
 L 30 482 L 29 482
 L 27 483 C 26 483, 26, 484, 26, 485
 L 25 487 L 23 486 L 24 485
 L 22 486
 L 20 487 L 19 487
 L 19 487
 L 19 489
 L 17 490 L 16 490
 L 14 489 L 14 488
 L 13 489 L 14 489
 L 15 491
 L 12 492 C 12 489, 8, 490, 8, 488
 L 7 488 L 9 488 L 10 490
 L 9 492 C 7 491, 6, 492, 6, 493
 L 5 495 L 4 494
 L 4 494 L 2 494 L 3 496
 L 2 498 L 1 498
 L 0 498 C 0 532, 0, 565, 0, 598
 C 200 598, 398, 598, 597, 598
 C 598 432, 599, 266, 598, 101
 L 598 103
 L 597 101 C 595 98, 599, 99, 599, 98
 L 598 97
 L 597 95 C 595 88, 598, 80, 595, 74" fill="rgb(26,28,32)" />
<path  d="
 M 0 1 C 0 99, -1, 220, 0, 310
 L 2 292 L 4 291 L 4 290
 L 5 288 C 8 290, 8, 286, 10, 286
 L 12 286
 L 12 283 L 14 284 L 15 283
 L 15 282 L 15 281
 L 16 280 C 17 281, 19, 280, 20, 281
 L 22 280 L 22 279
 L 23 277
 L 25 278 L 25 279
 L 26 278 L 26 277
 L 27 275 L 28 275
 L 30 274 C 31 273, 31, 275, 32, 275
 C 36 272, 39, 272, 40, 270
 L 42 270 L 43 271
 L 43 269 L 43 268 L 44 268
 L 46 267 L 47 268
 L 49 268 C 49 266, 50, 265, 51, 264
 L 54 264 L 55 264 L 55 266
 L 56 265 L 57 264
 L 59 263 L 60 262
 L 60 260 L 61 259 L 60 259
 L 60 256 C 62 256, 62, 260, 65, 258
 C 68 256, 70, 255, 69, 252
 C 73 255, 70, 256, 69, 258
 L 71 258 L 72 257
 L 74 256 L 75 256
 L 76 254 C 73 255, 74, 252, 73, 251
 L 72 250
 L 74 250 L 75 250
 L 77 250 L 77 251
 L 77 253 L 78 254
 L 79 253 C 79 251, 80, 250, 81, 249
 C 85 249, 87, 248, 89, 249
 L 90 247 L 89 246 L 89 246
 L 89 243 L 91 244 L 92 243
 L 94 242
 L 95 244 L 94 245
 L 93 246
 L 94 245
 L 95 243 C 99 245, 99, 239, 103, 241
 C 105 238, 108, 237, 110, 236
 L 111 235 L 111 237 L 113 238
 L 114 238 L 115 237
 L 117 237 C 118 237, 118, 235, 119, 235
 L 121 235
 L 122 233 L 123 232
 L 125 231
 L 125 229 L 125 228 L 127 228
 L 129 227 C 130 227, 131, 225, 133, 226
 C 134 222, 136, 225, 136, 222
 L 137 221
 L 139 220 C 139 220, 140, 221, 141, 222
 L 144 223 L 145 223
 L 145 222 L 144 221
 L 144 218 C 146 218, 147, 218, 149, 219
 C 150 216, 148, 216, 148, 214
 L 150 213 L 151 214 L 153 216
 L 153 215 L 152 214
 L 152 211 L 153 211 L 155 212
 L 157 211 C 158 212, 157, 214, 158, 215
 C 160 213, 162, 213, 162, 211
 L 164 211 L 164 210
 L 166 209 L 167 209
 L 168 207 C 170 206, 172, 204, 174, 203
 C 174 200, 174, 199, 175, 198
 L 176 196 L 177 196
 L 179 196 C 178 198, 178, 200, 178, 202
 L 178 205
 L 176 205 C 176 207, 176, 208, 177, 210
 L 176 212 L 175 213
 L 173 213 L 173 214 L 174 216
 L 174 218 C 173 221, 170, 223, 172, 227
 C 171 223, 174, 221, 173, 217
 C 174 214, 176, 213, 175, 211
 C 176 207, 177, 206, 178, 205
 C 179 197, 182, 193, 182, 187
 C 183 184, 183, 183, 183, 182
 L 185 181
 L 185 180 L 184 180
 L 182 177 C 183 176, 182, 174, 183, 173
 L 183 170 L 184 170 L 186 171
 L 186 172 C 186 174, 186, 175, 187, 177
 C 185 172, 190, 170, 188, 165
 C 192 157, 193, 150, 196, 144
 L 195 144 L 194 143
 L 193 141 L 193 140
 L 194 138 L 194 137
 L 196 137
 L 197 139 L 197 140
 L 197 140 L 197 139
 L 197 136 C 198 135, 199, 133, 198, 130
 L 200 129 L 200 128
 L 200 127 L 199 127
 L 197 124 L 197 123 L 198 123
 L 199 121 L 199 120
 L 201 120
 L 201 121 L 201 122 L 202 124
 L 201 123 L 201 122 L 202 122
 L 202 120 L 203 119
 L 203 116 C 203 115, 203, 114, 204, 113
 L 206 112 L 207 111
 L 209 110
 L 210 110 L 211 109
 L 212 107 C 214 108, 216, 107, 218, 108
 L 220 109
 L 221 111
 L 218 111 C 217 112, 215, 111, 214, 112
 C 215 112, 217, 111, 219, 112
 L 221 112 L 221 113 L 223 113
 L 225 114 C 227 114, 229, 114, 230, 113
 L 233 115 L 234 115
 L 235 115 L 236 115 L 238 116
 L 238 115 L 239 114
 L 240 112 L 241 112 L 243 113
 L 245 114 L 246 114
 L 246 116
 L 243 116 L 242 116 L 242 117
 L 241 116 L 242 116 L 244 117
 L 245 118 C 249 117, 252, 119, 256, 118
 C 259 119, 260, 121, 261, 121
 L 262 120 L 263 119
 L 265 118 C 267 117, 269, 117, 271, 117
 L 274 119
 L 274 121
 L 272 122 C 270 122, 268, 122, 265, 121
 C 267 122, 269, 121, 271, 122
 L 273 123 L 274 123
 L 276 124 C 278 124, 280, 124, 281, 123
 L 283 124 L 285 124 L 286 126
 L 286 125
 L 285 124 L 284 124
 L 281 123 C 280 124, 278, 123, 277, 124
 L 275 123
 L 276 121
 L 278 120 C 280 120, 282, 120, 283, 119
 L 286 121 L 287 122
 L 289 123 C 291 122, 293, 122, 295, 122
 L 297 122 L 298 121
 L 298 119 C 298 118, 298, 117, 299, 116
 C 301 114, 302, 111, 304, 111
 L 305 109 L 305 108
 L 307 108 L 307 109
 L 309 109
 L 309 107 L 308 107
 L 307 105 L 307 104
 L 308 102
 L 310 103 L 310 104
 L 310 104
 L 312 105 L 313 106
 L 314 106
 L 313 104
 L 312 101 L 313 100 L 315 100
 L 315 97 L 314 96 L 314 96
 L 315 94
 L 317 95 L 317 96 L 319 96
 L 319 95 C 320 93, 318, 92, 318, 91
 L 320 89
 L 322 90 L 323 91
 L 324 90
 L 324 88 L 323 87
 L 323 84 C 325 87, 326, 83, 329, 83
 C 329 82, 328, 83, 328, 82
 L 328 80
 L 330 79 C 330 78, 331, 78, 332, 78
 L 333 77
 L 332 75 L 332 74
 L 333 72
 L 335 73
 L 337 73
 L 339 73 L 340 74
 L 341 72 C 339 71, 338, 70, 339, 68
 L 340 67
 L 342 68
 L 343 67 L 343 66 L 344 66
 L 345 64
 L 346 63
 L 345 64
 L 342 65 C 341 64, 342, 62, 341, 61
 L 342 58 L 343 58 L 345 59
 L 346 57 C 347 56, 350, 57, 349, 54
 L 352 55 L 353 54
 L 355 53 L 355 52
 L 356 50 C 355 48, 355, 47, 355, 46
 L 357 45
 L 359 44 L 360 44 L 360 46
 L 361 45 L 360 45
 L 359 43
 L 361 42 L 362 43
 L 364 43 L 364 42
 L 362 39 C 361 39, 360, 40, 360, 39
 C 361 36, 362, 36, 363, 36
 C 365 34, 366, 33, 368, 32
 L 369 30 L 370 30 L 372 31
 L 373 30 L 372 29
 L 373 27 L 374 27
 L 374 26
 L 374 24 C 373 23, 374, 21, 372, 21
 C 374 20, 376, 19, 378, 20
 L 378 20 L 377 19
 L 378 17 L 378 15 L 380 16
 L 381 15
 L 379 15 L 378 15
 L 376 15
 L 377 13
 L 379 12 L 380 12
 L 382 13
 L 384 13 C 382 11, 381, 10, 380, 9
 L 382 8
 L 384 7 C 385 7, 385, 9, 387, 9
 C 389 6, 385, 6, 387, 3
 L 389 3
 L 389 5
 L 391 4 L 392 3
 L 393 1 C 396 2, 398, 0, 400, 0
 C 267 0, 135, 0, 1, 0" fill="rgb(71,80,98)" />
<path  d="
 M 206 112 C 205 120, 202, 126, 200, 133
 C 200 137, 198, 138, 198, 139
 C 197 142, 197, 143, 197, 144
 C 195 150, 195, 154, 193, 157
 C 193 163, 190, 165, 191, 169
 C 190 172, 188, 173, 188, 174
 C 188 180, 185, 182, 185, 185
 C 185 189, 183, 190, 183, 191
 C 182 194, 182, 195, 182, 196
 C 179 208, 176, 217, 174, 227
 C 173 232, 170, 234, 171, 238
 C 170 241, 168, 242, 168, 243
 C 168 249, 165, 251, 166, 255
 C 165 258, 163, 259, 163, 260
 C 161 269, 159, 276, 157, 282
 C 155 288, 155, 292, 153, 295
 C 152 298, 152, 299, 152, 300
 L 152 303
 L 150 304 L 150 305 L 151 307
 L 149 308 C 150 310, 148, 311, 148, 312
 C 146 321, 144, 328, 142, 334
 C 140 340, 140, 344, 138, 347
 C 137 350, 137, 351, 137, 352
 L 137 355
 L 135 356 C 136 362, 132, 364, 133, 370
 L 132 372
 L 131 374 C 131 378, 127, 382, 127, 386
 L 127 389
 L 126 391 C 125 391, 125, 392, 125, 393
 C 122 402, 121, 410, 118, 416
 C 117 419, 117, 420, 117, 421
 C 120 423, 122, 422, 124, 423
 L 124 422 L 123 422
 L 121 421 L 121 420
 L 121 417 C 121 413, 126, 410, 124, 405
 C 128 405, 127, 406, 128, 408
 L 129 407 L 129 406
 L 129 403 L 130 403 L 132 404
 L 134 403 L 135 402
 L 137 402 L 138 403
 L 139 403 L 140 402
 L 142 402 L 143 403
 L 144 403 L 145 402
 L 147 401
 L 148 400 L 149 399 L 149 398
 L 151 397 L 152 398
 L 154 398 C 154 396, 157, 396, 157, 395
 L 159 394 L 160 395
 L 162 394 L 162 393
 L 164 392 C 165 392, 165, 394, 167, 394
 C 169 391, 165, 392, 167, 389
 L 169 390
 L 170 388 L 172 389 L 172 388
 L 174 387 C 175 386, 177, 385, 180, 386
 L 181 384 L 182 383 L 184 383
 L 185 381 L 186 381 L 188 382
 L 190 381 C 191 381, 191, 377, 194, 378
 L 196 377 L 197 378
 L 197 377 C 200 376, 200, 375, 201, 372
 L 204 372 L 205 372
 L 207 371 L 208 370
 L 209 368 L 210 368 L 212 369
 L 214 368 C 213 365, 215, 364, 217, 363
 C 219 364, 218, 366, 219, 368
 C 221 369, 221, 371, 222, 370
 C 227 372, 229, 372, 230, 371
 L 232 372 L 233 372 L 235 373
 L 237 373 C 245 374, 252, 377, 260, 378
 C 265 379, 267, 380, 271, 379
 L 271 378 L 270 378 L 270 379
 L 267 377 C 266 378, 264, 377, 263, 378
 L 261 377
 L 260 376 C 258 376, 256, 376, 253, 375
 L 252 375
 L 249 374 C 247 373, 245, 372, 241, 373
 L 240 372
 L 237 370 C 236 371, 234, 370, 233, 371
 C 228 370, 226, 368, 224, 367
 C 222 364, 222, 363, 223, 362
 C 226 357, 225, 353, 226, 350
 C 227 347, 227, 346, 227, 345
 C 228 342, 230, 342, 229, 340
 C 230 337, 230, 336, 230, 335
 L 232 334
 L 232 331 C 232 327, 236, 325, 236, 321
 L 237 319
 L 238 318 C 246 316, 250, 322, 258, 320
 L 260 322
 L 261 323 C 269 321, 273, 326, 281, 325
 L 283 327
 L 285 328 C 287 327, 289, 327, 291, 327
 C 295 328, 296, 330, 298, 329
 C 301 331, 303, 330, 305, 331
 L 307 332
 L 308 333 C 310 333, 312, 333, 313, 332
 C 311 332, 309, 330, 306, 331
 C 296 329, 291, 324, 283, 323
 C 283 319, 286, 322, 286, 319
 L 289 319 L 290 320
 L 291 318 C 293 318, 294, 319, 295, 318
 L 295 317 L 295 316
 L 296 314 L 297 315
 L 298 315
 L 299 313 L 300 312
 L 302 312
 L 304 311 L 304 310
 L 306 309 C 307 308, 307, 306, 309, 307
 C 309 303, 314, 302, 314, 300
 L 315 298 L 316 297 L 318 297
 L 319 297 C 321 300, 317, 299, 317, 300
 C 321 297, 324, 295, 327, 293
 C 330 292, 331, 290, 332, 290
 C 335 288, 337, 289, 337, 286
 C 341 286, 340, 282, 343, 284
 L 344 282 L 344 281 L 346 281
 L 348 280 L 349 280
 L 349 278 L 349 277 L 350 277
 L 352 277 L 352 278
 L 354 278 L 353 276 L 352 277
 L 352 275 C 354 275, 356, 275, 357, 274
 L 360 276
 L 361 277 C 363 276, 367, 277, 370, 277
 L 371 277 L 372 277 L 374 278
 L 375 278 C 377 278, 378, 278, 380, 279
 L 382 280
 L 382 281 C 381 287, 380, 294, 377, 299
 C 377 303, 376, 304, 377, 307
 L 377 308
 L 377 306 C 378 305, 377, 303, 378, 302
 L 379 300
 L 379 297 C 380 296, 381, 295, 380, 292
 L 382 291
 L 382 289 C 382 288, 382, 287, 383, 286
 L 384 284 L 384 283
 L 384 280 L 384 279 L 385 279
 L 383 277 L 382 278 L 382 277
 L 379 275 C 378 276, 376, 275, 375, 276
 C 370 275, 369, 273, 367, 273
 C 363 272, 362, 272, 361, 273
 L 359 272 L 358 272
 L 355 270 C 354 270, 353, 270, 352, 271
 C 347 270, 346, 268, 344, 268
 C 340 267, 339, 267, 338, 268
 L 336 267 L 335 267
 L 332 265 C 331 265, 330, 265, 329, 266
 C 324 265, 324, 263, 321, 264
 C 318 262, 317, 262, 316, 263
 L 314 262 L 313 262
 L 310 260 C 309 261, 307, 260, 306, 261
 C 301 260, 300, 259, 299, 258
 C 295 258, 293, 257, 292, 258
 L 290 257 L 289 257
 L 286 255 C 285 255, 284, 255, 283, 256
 C 278 255, 277, 253, 275, 253
 C 268 254, 265, 250, 260, 251
 L 259 250
 L 257 247 C 257 246, 257, 245, 258, 244
 C 258 240, 260, 239, 259, 237
 C 262 227, 266, 218, 268, 210
 C 269 206, 268, 205, 270, 205
 L 272 204
 L 273 204 C 276 203, 276, 205, 279, 204
 C 282 206, 284, 205, 286, 206
 L 288 207 L 289 207
 L 290 207 C 292 207, 293, 207, 295, 208
 C 299 208, 300, 210, 302, 210
 C 306 211, 308, 210, 310, 211
 L 312 212 L 313 212
 L 314 213 C 321 212, 327, 216, 334, 215
 L 336 217 L 337 217
 L 338 217 C 340 218, 342, 217, 344, 218
 C 348 218, 349, 220, 352, 219
 C 355 220, 356, 220, 358, 221
 L 360 222 L 361 222
 L 362 222 C 364 223, 366, 222, 368, 223
 C 372 223, 373, 225, 376, 224
 C 383 224, 387, 229, 393, 227
 C 404 231, 414, 232, 423, 235
 C 427 236, 429, 235, 431, 236
 L 433 237
 L 435 238 C 437 237, 439, 237, 441, 237
 C 445 238, 446, 240, 448, 239
 C 451 241, 453, 240, 455, 241
 L 457 242
 L 457 242 C 459 243, 461, 242, 463, 243
 L 464 242
 L 464 240 L 465 239 L 465 238
 L 466 236 C 465 234, 465, 233, 465, 232
 L 467 231
 L 467 229 C 468 228, 467, 226, 468, 225
 C 471 220, 470, 216, 471, 213
 C 472 210, 472, 209, 473, 208
 C 475 205, 474, 204, 475, 203
 C 475 199, 475, 198, 475, 197
 L 477 196
 L 478 195 C 477 193, 477, 192, 477, 191
 C 478 188, 480, 187, 479, 185
 L 480 183 L 480 182 L 481 182
 L 482 180
 L 481 178 C 491 164, 475, 166, 467, 163
 C 463 163, 461, 162, 460, 163
 L 458 162 L 457 162
 L 454 160 C 453 160, 452, 160, 451, 161
 C 445 160, 444, 158, 440, 159
 C 437 157, 436, 157, 435, 158
 L 433 157 L 432 157
 L 429 155 C 428 156, 426, 155, 425, 156
 C 420 155, 418, 153, 415, 154
 C 412 152, 411, 152, 410, 153
 L 408 152 L 407 152
 L 404 150 C 403 151, 401, 150, 400, 151
 C 395 150, 394, 148, 392, 148
 C 383 147, 377, 145, 371, 144
 L 368 143 L 367 143 L 367 144
 L 364 142 C 363 143, 361, 142, 360, 143
 L 358 142 L 357 142
 L 354 140 C 353 140, 352, 140, 351, 141
 C 346 140, 344, 138, 342, 138
 C 338 138, 336, 137, 335, 138
 L 333 137 L 332 137
 L 329 135 C 328 135, 327, 135, 326, 136
 C 321 135, 319, 133, 317, 133
 C 309 134, 305, 130, 299, 131
 C 295 130, 294, 128, 291, 129
 C 288 127, 287, 127, 286, 128
 C 278 126, 272, 125, 267, 123
 C 263 123, 261, 122, 260, 123
 L 257 121 L 256 121 L 256 122
 L 253 121 C 247 121, 241, 117, 235, 117
 L 233 117 L 232 117
 L 230 115 C 222 116, 216, 112, 208, 113" fill="rgb(215,224,231)" />
<path  d="
 M 402 0 M 403 1
 L 400 1 C 398 1, 396, 3, 393, 2
 L 392 4
 L 390 5 L 389 4
 L 387 4 C 387 7, 390, 4, 390, 7
 L 389 9
 L 387 10 C 385 10, 385, 8, 383, 7
 L 382 9
 L 383 11 L 384 12
 L 384 14
 L 382 14
 L 379 12 L 378 12 L 378 13
 L 377 15 L 377 13 L 379 14
 L 381 14
 L 382 16 C 381 17, 380, 16, 379, 17
 L 378 19 L 379 20
 L 378 22 C 377 21, 376, 20, 373, 21
 C 375 21, 374, 22, 375, 24
 L 375 26
 L 375 28 L 374 28
 L 373 29 L 374 30
 L 373 32 C 371 31, 370, 31, 369, 31
 C 365 33, 368, 36, 365, 36
 L 363 37 L 362 37 L 362 38
 L 360 38 C 362 39, 363, 38, 364, 40
 L 365 42
 L 364 44
 L 362 44 L 361 43
 L 360 44 L 359 45 L 358 45
 L 357 47 C 356 48, 357, 50, 356, 52
 L 355 54 L 354 55 L 353 55
 L 351 54 C 351 57, 348, 57, 347, 58
 L 345 60 L 344 60
 L 343 60 C 341 64, 345, 63, 345, 67
 L 344 69
 L 342 69 L 341 68
 L 340 68 C 339 70, 340, 71, 342, 72
 L 341 75
 L 339 74
 L 337 74
 L 335 74 L 334 73
 L 333 74 L 333 75
 L 334 77
 L 334 79
 L 332 80 C 330 79, 329, 79, 328, 79
 C 330 82, 331, 81, 332, 83
 C 329 85, 327, 84, 326, 85
 L 325 87 L 324 86
 L 324 87 L 325 88
 L 325 90 L 325 91
 L 322 91 L 321 90 L 321 90
 L 319 91 C 320 92, 321, 93, 320, 96
 C 317 97, 317, 95, 315, 94
 L 315 96 L 316 97
 L 317 99 C 315 99, 314, 100, 313, 101
 L 314 104 L 315 105
 L 314 107
 L 311 107 C 312 104, 308, 105, 309, 102
 L 308 104 L 308 105
 L 309 106 L 310 107
 L 310 109 L 309 110
 L 307 110 L 306 109
 L 306 109
 L 305 111 C 303 111, 302, 112, 301, 113
 L 300 115 L 299 114
 L 298 113
 L 296 114 L 298 115 L 299 114
 L 299 115 C 299 117, 299, 118, 300, 120
 L 299 122
 L 297 121
 L 297 121
 L 298 123
 L 295 123 L 294 123 L 294 124
 L 292 124 C 290 123, 289, 123, 288, 123
 L 287 123 L 286 122
 L 284 121 C 282 121, 280, 121, 277, 120
 C 277 121, 281, 123, 284, 123
 L 287 124 L 287 125
 L 287 125
 L 289 124 C 289 123, 290, 123, 291, 123
 L 294 125
 L 294 126 C 294 125, 295, 125, 296, 125
 L 299 126 L 299 127
 L 300 127
 L 301 125 L 302 125 L 304 126
 L 306 126 C 307 126, 308, 128, 310, 127
 L 312 129 L 312 130
 L 312 130
 L 313 128 C 315 128, 316, 128, 318, 129
 L 320 130
 L 320 130 L 321 130 L 323 131
 L 325 132
 L 327 133 C 327 130, 329, 133, 329, 130
 C 334 133, 337, 132, 338, 135
 L 339 135
 L 340 133 L 341 133 L 343 134
 L 345 135
 L 346 136 C 346 135, 347, 135, 348, 135
 L 351 137
 L 352 137
 L 354 136 L 355 136
 L 357 136 C 358 138, 361, 137, 362, 140
 L 364 140
 L 365 138 C 367 138, 368, 138, 370, 139
 C 371 142, 374, 139, 374, 142
 L 376 142
 L 377 140 C 379 140, 380, 140, 382, 141
 L 384 142 L 385 142
 L 384 143 C 383 144, 381, 143, 380, 144
 C 381 143, 382, 143, 384, 144
 L 386 144 L 387 145
 L 387 145
 L 388 143 C 389 142, 391, 143, 392, 142
 L 395 144 L 396 144
 L 398 145 C 394 147, 399, 144, 398, 146
 L 399 147
 L 401 146 C 403 145, 405, 145, 407, 145
 L 410 147 L 410 148
 L 407 148 C 406 148, 405, 148, 404, 149
 C 405 148, 406, 148, 408, 149
 L 410 149
 L 412 150
 L 413 150 L 411 149 L 414 149
 L 415 148 C 418 147, 419, 148, 420, 149
 L 423 150
 L 422 150 L 424 150 L 425 152
 L 427 152
 L 428 151 C 431 150, 434, 150, 435, 152
 L 438 153
 L 436 154 C 434 154, 432, 154, 429, 153
 C 432 154, 434, 154, 435, 153
 L 438 154 L 439 155
 L 439 155 L 439 154
 L 440 153 C 443 152, 446, 152, 447, 154
 L 449 154 L 447 155 L 450 157
 L 452 157
 L 454 156 C 456 156, 458, 156, 459, 155
 L 462 157
 L 462 159 C 459 158, 457, 158, 454, 158
 C 457 159, 459, 159, 460, 158
 L 463 160
 L 463 160 L 464 159
 L 465 157 C 467 158, 469, 157, 471, 158
 L 473 159 L 474 159
 L 474 161 L 474 162
 L 475 162
 L 477 161 C 478 160, 479, 159, 482, 160
 L 483 160 L 485 160 L 486 162
 L 484 163 C 483 164, 481, 163, 480, 164
 C 481 163, 482, 163, 484, 164
 L 486 165
 L 488 165
 L 490 166
 L 491 168 C 490 168, 490, 169, 490, 170
 L 492 172
 L 493 174
 L 494 175 C 495 178, 498, 178, 498, 181
 L 500 182 L 501 181
 L 503 181
 L 503 179 C 507 179, 504, 176, 506, 174
 L 509 174 L 510 174
 L 511 173 L 510 172
 L 510 170 L 511 170
 L 512 169 L 512 168
 L 514 167 C 515 167, 515, 169, 517, 169
 L 518 168 L 519 167 L 519 166
 L 520 164 L 521 164
 L 520 162 L 519 161 L 519 161
 L 519 158 C 521 159, 523, 158, 525, 159
 C 525 156, 527, 155, 527, 154
 L 527 151 L 528 151 L 530 152
 L 530 149 L 529 150 L 529 149
 L 530 147
 L 532 148
 L 533 147 L 533 146 L 534 146
 L 535 144 C 536 144, 536, 142, 537, 141
 L 539 140 L 540 139
 L 540 136 L 541 137 L 543 139
 L 543 137 L 542 136
 L 542 133 L 543 133 L 545 134
 L 546 133 L 546 132
 L 547 130 C 550 126, 553, 123, 556, 120
 L 559 119 L 560 119
 L 562 118 L 563 117
 L 564 115 L 563 115
 L 562 113 C 562 111, 563, 112, 565, 112
 L 565 109 L 564 110 L 564 109
 L 565 107
 L 567 108
 L 568 108 C 569 105, 572, 108, 572, 105
 L 573 104 L 572 105 L 572 104
 L 573 102 L 574 101 L 574 100
 L 576 99 L 577 100
 L 578 100 L 579 99
 L 578 97
 L 577 95 L 577 94
 L 578 92 C 579 90, 580, 89, 582, 88
 L 584 87 L 585 88
 L 586 88 L 584 87 L 585 86
 L 586 84 C 585 82, 587, 82, 587, 80
 C 588 77, 588, 75, 588, 72
 L 591 72 L 592 73
 L 594 73 L 595 72
 L 596 72 C 598 79, 597, 89, 598, 96
 C 598 63, 599, 32, 599, 1
 C 534 0, 471, 0, 408, 0
 L 408 1
 L 406 1 C 404 2, 403, 1, 403, 0" fill="rgb(49,53,64)" />
<path  d="
 M 178 188 M 178 189 M 179 191
 L 179 193
 L 179 195
 L 177 197
 L 175 197 C 175 199, 175, 200, 176, 202
 C 172 204, 171, 207, 168, 208
 L 167 210 L 166 210
 L 165 211
 L 163 212 C 162 213, 160, 214, 159, 215
 L 158 217
 L 156 214 L 156 213 L 157 213
 L 155 213 L 154 213
 L 153 214 L 154 215
 L 154 217
 L 152 216 L 151 215
 L 150 216 L 151 216 L 151 218
 L 149 219 C 148 219, 147, 219, 146, 220
 L 145 221 L 146 222
 L 145 223 L 144 223 L 144 224
 L 142 224 C 140 222, 139, 221, 138, 220
 C 138 223, 135, 224, 134, 225
 C 131 226, 130, 228, 129, 228
 L 127 229 L 127 230
 L 126 232 L 125 232
 L 123 233 C 121 233, 122, 234, 122, 236
 C 118 236, 118, 238, 116, 237
 L 115 238 L 114 239
 L 111 238 L 112 237 L 111 237
 L 109 236 C 106 240, 103, 241, 98, 243
 L 97 245 L 96 245
 L 94 244 L 94 243
 L 92 244 L 91 245
 L 90 246 L 91 247
 L 91 249
 L 88 249 C 87 250, 85, 249, 84, 250
 C 81 252, 79, 252, 80, 254
 L 77 254 L 76 253 L 76 253
 L 76 251
 L 75 251 L 74 251
 L 72 251 C 74 251, 74, 254, 75, 254
 L 77 256
 L 75 257 L 74 257
 L 71 257 L 72 259 L 71 260
 L 69 259
 L 70 257
 L 71 255 L 71 254
 L 71 254
 L 70 256 C 68 256, 67, 257, 66, 258
 C 63 260, 62, 259, 61, 257
 L 61 259 L 62 259 L 62 261
 L 60 262 L 59 262 L 59 264
 L 57 265 L 57 266
 L 55 267 L 53 266 L 54 265
 L 52 266 C 50 266, 49, 267, 48, 268
 L 47 269 L 46 268
 L 44 268 L 44 269 L 45 271
 L 43 272 L 42 271
 L 41 271 C 39 273, 36, 273, 35, 276
 C 31 276, 31, 274, 30, 275
 L 28 276
 L 26 276 L 26 277 L 27 279
 L 25 280 L 23 279 L 24 278
 L 22 278 L 22 279 L 23 281
 L 20 282 C 19 281, 17, 282, 16, 281
 L 16 282
 L 15 283 L 14 283 L 14 285
 L 13 286 L 13 287
 L 10 287 C 8 287, 8, 291, 5, 289
 L 5 291 L 4 292
 L 2 293 C 3 297, 1, 299, 2, 303
 L 1 305
 L 0 306 C 0 369, 0, 432, 0, 495
 L 1 497
 L 2 496 C 1 494, 3, 494, 2, 492
 L 5 493 L 5 494
 L 6 493 C 6 491, 9, 491, 9, 490
 L 10 488 L 11 489 L 13 491
 L 14 490
 L 15 488 L 16 488 L 18 489
 L 18 488
 L 17 485 L 18 485 L 20 486
 L 22 485
 L 24 484 L 25 484 L 25 486
 L 26 485 L 26 484
 L 27 482
 L 29 481 L 30 481
 L 32 480 C 32 478, 33, 477, 34, 476
 C 38 476, 40, 475, 43, 476
 L 44 475 L 45 474
 L 46 474 L 47 475 L 49 477
 L 51 476
 L 49 474 L 48 474 L 48 475
 L 47 473 L 48 472
 L 49 470 L 50 471 L 52 473
 L 54 473 C 53 471, 53, 470, 53, 469
 L 56 469 L 57 470
 L 58 470 C 59 469, 58, 468, 60, 468
 L 62 468 L 63 469
 L 64 468 C 64 466, 65, 465, 66, 464
 C 69 465, 71, 465, 71, 463
 C 75 462, 74, 461, 75, 460
 L 77 460
 L 77 460 L 78 460 L 80 461
 L 82 460
 L 84 459 L 85 459
 L 85 457 L 85 456 L 86 456
 L 88 454 C 90 455, 90, 458, 93, 457
 L 94 456 L 95 455 L 97 455
 L 99 454 C 99 453, 100, 453, 101, 453
 L 104 453 L 105 452
 L 107 452 L 108 453
 L 108 451 L 108 450 L 109 450
 L 111 449
 L 113 449 C 114 446, 117, 444, 119, 445
 L 121 444 L 122 445
 L 124 446 C 127 445, 131, 445, 134, 445
 C 131 447, 131, 443, 129, 443
 C 124 440, 123, 436, 121, 433
 C 118 429, 116, 428, 113, 427
 L 114 425 L 115 425
 L 115 425
 L 113 422 L 113 421 L 114 421
 L 115 419 L 116 418
 L 115 418 L 114 418
 L 113 416 C 112 414, 112, 413, 112, 412
 C 115 408, 115, 404, 116, 401
 L 119 402
 L 119 404 C 118 404, 118, 405, 118, 406
 C 118 405, 118, 404, 118, 403
 L 120 402
 L 120 402 L 119 401
 L 118 399 C 117 397, 117, 396, 117, 395
 L 119 394
 L 121 393 L 122 394
 L 122 393
 L 121 391 C 120 389, 120, 388, 120, 387
 L 122 386
 L 123 385 C 123 387, 123, 388, 124, 390
 C 123 388, 123, 387, 123, 386
 L 125 385
 L 125 385 L 124 385
 L 123 383 C 122 381, 122, 380, 122, 379
 L 124 378
 L 126 378 L 127 377
 L 127 377
 L 125 374 C 125 373, 125, 372, 126, 371
 L 127 369
 L 128 368 C 129 370, 128, 372, 129, 374
 C 128 372, 128, 371, 129, 370
 L 130 368 L 131 368
 L 130 368 L 129 367
 L 128 365 L 128 364
 L 129 362 C 129 359, 131, 362, 131, 359
 L 132 358
 L 130 355 C 131 354, 130, 353, 132, 353
 L 133 351
 L 133 352 L 133 353 L 134 355
 L 133 354 L 133 353 L 134 353
 L 134 351
 L 136 349
 L 134 349 L 132 348 L 133 347
 L 134 345 C 133 341, 136, 344, 136, 343
 C 135 340, 136, 338, 135, 337
 L 137 335
 L 138 334 L 138 335 L 139 337
 L 138 336 L 138 335 L 139 335
 L 140 333
 L 140 333 L 139 332
 L 137 329 L 137 328 L 139 328
 L 140 326 L 141 326
 L 141 324 C 140 323, 141, 321, 140, 320
 L 142 318
 L 143 317 C 143 319, 143, 320, 144, 322
 C 143 320, 143, 319, 143, 318
 C 144 315, 142, 315, 143, 314
 L 144 312 L 144 311
 L 144 308 L 145 308 L 147 309
 L 147 307
 L 146 305 L 146 304
 L 147 302
 L 148 301 L 148 302 L 149 304
 L 148 303 L 148 302 L 149 302
 L 149 300 L 150 299
 L 150 299
 L 148 296 L 148 295 L 149 295
 L 150 293
 L 151 293 L 151 292
 L 152 290
 L 152 289 L 150 288 L 151 287
 L 152 285 L 152 284
 L 154 284 L 154 285
 L 153 284 L 153 283 L 154 283
 L 155 281
 L 155 280
 L 154 278
 L 155 276 C 157 276, 154, 272, 157, 272
 L 157 272
 L 156 270
 L 156 267 C 156 266, 159, 265, 159, 263
 L 160 264
 L 158 261 L 158 260 L 159 260
 L 160 258
 L 161 258
 L 162 256
 L 162 255 L 160 254 L 161 253
 L 161 250 C 161 249, 164, 248, 164, 246
 L 165 247
 L 164 245 L 164 244
 L 165 242 C 167 242, 164, 239, 167, 239
 L 167 239
 L 165 236 C 165 235, 168, 233, 168, 232
 L 169 230 L 170 230
 L 170 227 C 171 226, 170, 224, 171, 223
 L 172 221
 L 172 219 L 172 218
 L 172 215 L 172 214 L 173 214
 L 174 212
 L 174 211
 L 175 209
 L 175 207 L 175 206 L 176 206
 L 177 204
 L 176 202 L 176 201 L 177 201
 L 177 198 L 177 197 L 178 197
 L 179 195 L 180 195
 L 180 195
 L 179 193
 L 180 191
 L 180 190 L 180 189 L 181 189" fill="rgb(50,54,65)" />
<path  d="
 M 218 363 C 215 364, 215, 366, 214, 369
 L 211 369 L 210 369 L 210 370
 L 208 371 L 207 372
 L 205 373 L 204 373
 L 201 373 C 203 377, 198, 376, 198, 378
 L 197 379 L 196 378
 L 194 379 C 192 378, 191, 379, 191, 380
 C 189 383, 187, 382, 186, 383
 L 183 383 L 182 384 L 182 386
 L 180 387 C 177 386, 175, 387, 174, 388
 L 173 389 L 172 390 L 171 390
 L 169 391
 L 168 391 L 169 391
 L 170 393 L 169 394
 L 167 395 C 165 395, 165, 393, 163, 392
 L 163 394 L 162 395
 L 160 396 L 159 395
 L 158 396 C 156 397, 154, 397, 154, 399
 L 152 399 L 151 398
 L 150 399 L 149 400
 L 148 402 C 146 401, 145, 402, 144, 404
 L 142 404 L 142 403
 L 140 403 L 139 404
 L 137 404 L 137 403
 L 135 403 L 134 404
 L 132 405 L 131 405
 L 129 405 L 129 406 L 130 408
 L 128 409 C 126 408, 127, 407, 127, 406
 L 125 406 L 125 407 L 126 409
 L 125 411 C 123 413, 123, 417, 121, 419
 L 122 420 L 124 420 L 125 422
 L 125 424 C 123 424, 121, 424, 118, 423
 C 116 420, 116, 417, 116, 422
 C 119 423, 120, 425, 121, 425
 C 130 424, 134, 430, 141, 428
 L 143 430
 L 144 430 C 146 431, 148, 430, 150, 431
 C 155 434, 160, 433, 163, 435
 C 167 435, 168, 435, 170, 436
 C 176 437, 181, 438, 185, 440
 C 193 441, 198, 443, 203, 444
 L 206 445 L 207 445
 L 208 446 C 215 445, 219, 449, 226, 448
 L 228 450
 L 229 450 C 231 451, 233, 450, 235, 451
 C 240 453, 245, 453, 248, 455
 C 252 455, 253, 455, 255, 456
 C 261 457, 266, 458, 270, 460
 C 274 460, 275, 460, 277, 461
 C 283 463, 287, 463, 292, 464
 C 295 465, 296, 465, 298, 466
 C 304 468, 309, 468, 312, 470
 C 316 470, 317, 470, 319, 471
 C 325 473, 330, 473, 333, 475
 C 337 475, 338, 475, 340, 476
 L 342 477 L 343 477
 L 345 477 C 353 479, 361, 482, 369, 483
 C 373 483, 374, 485, 375, 485
 C 379 486, 381, 485, 383, 486
 L 385 487
 L 386 487 C 388 487, 389, 487, 391, 488
 C 395 488, 397, 491, 400, 490
 C 404 487, 402, 482, 405, 479
 C 405 475, 405, 474, 405, 473
 L 407 472 L 407 471
 L 408 469 C 407 466, 409, 466, 408, 463
 L 410 462
 L 411 460 C 410 458, 410, 457, 410, 456
 C 413 451, 413, 448, 415, 445
 C 415 441, 415, 440, 415, 439
 C 417 434, 419, 430, 420, 427
 L 420 424 L 420 423 L 421 423
 L 422 421
 L 423 419 C 422 416, 424, 416, 423, 413
 C 411 409, 400, 407, 389, 404
 L 387 404 L 386 404
 L 383 403 C 377 403, 373, 400, 367, 399
 L 365 399 L 364 399
 L 362 397 C 355 398, 351, 394, 344, 395
 L 343 394 L 342 394
 L 339 392 C 338 392, 337, 392, 336, 393
 C 329 390, 325, 390, 320, 389
 C 317 387, 316, 387, 315, 388
 L 312 386 L 311 386 L 311 387
 L 309 385 C 306 386, 304, 384, 301, 385
 L 300 384 L 299 384
 L 296 382 C 295 382, 294, 382, 293, 383
 C 288 382, 287, 380, 284, 381
 C 281 379, 280, 379, 279, 379
 L 278 379 L 277 379
 L 274 377 L 273 377 L 273 378
 L 270 378 C 268 376, 264, 376, 261, 375
 L 259 374 L 258 374 L 258 375
 L 256 374 L 255 374
 L 253 373 L 252 373
 L 250 373 L 249 373
 L 249 373 L 250 373
 L 252 374
 L 253 374 L 254 374 L 256 375
 L 257 374 L 258 374 L 260 375
 L 262 376
 L 262 377 C 265 377, 268, 376, 270, 378
 L 273 379 L 273 380
 L 270 380 C 269 380, 268, 380, 267, 381
 L 264 379 L 263 379 L 263 380
 L 260 379 C 252 378, 245, 375, 237, 374
 L 234 373 L 233 373 L 233 374
 L 231 373 C 229 373, 227, 373, 224, 372
 C 221 371, 220, 370, 218, 370
 C 217 366, 217, 365, 217, 364" fill="rgb(166,182,195)" />
<path  d="
 M 322 262 C 325 263, 328, 265, 333, 264
 L 335 266 L 336 266
 L 337 266 C 339 266, 340, 266, 342, 267
 C 346 267, 347, 269, 350, 268
 C 353 269, 354, 269, 356, 270
 L 358 271 L 359 271
 L 360 271 C 362 271, 363, 271, 365, 272
 C 369 272, 370, 274, 373, 273
 L 375 275
 L 377 275 C 377 274, 378, 274, 379, 274
 L 382 276 L 382 277 L 384 277
 L 386 278 C 385 278, 385, 279, 385, 280
 L 385 283 L 385 284
 L 383 285 C 383 287, 383, 288, 384, 290
 L 383 292
 L 381 292 L 381 293 L 382 295
 L 380 296 C 380 298, 381, 299, 380, 300
 C 379 304, 379, 306, 378, 307
 L 377 309 L 376 309
 L 375 306 C 377 298, 380, 290, 381, 281
 C 377 280, 374, 279, 372, 278
 C 366 277, 364, 278, 361, 278
 L 359 277
 L 357 275 C 356 276, 354, 275, 353, 276
 C 350 277, 350, 278, 350, 279
 L 349 281 L 348 281
 L 346 282 C 344 286, 339, 285, 337, 288
 L 336 290
 L 334 289
 L 333 289 L 334 289
 L 335 291
 L 332 291 C 331 291, 330, 293, 328, 292
 C 325 296, 322, 296, 321, 298
 L 320 300 L 319 299
 L 317 297 L 316 298 L 316 300
 L 315 301 C 312 302, 312, 304, 311, 307
 C 307 307, 307, 309, 305, 309
 L 305 311 L 304 312
 L 302 313
 L 300 313 C 298 313, 299, 314, 299, 316
 L 297 316
 L 295 315 L 295 317 L 297 318
 L 295 319 C 294 320, 293, 319, 292, 320
 L 290 321 L 289 320
 L 287 321 C 286 322, 285, 321, 284, 322
 C 284 322, 285, 322, 286, 322
 C 291 325, 294, 326, 297, 327
 C 304 328, 308, 330, 313, 330
 L 315 332
 L 315 334 C 312 333, 310, 333, 307, 333
 L 306 333
 L 304 331 C 303 332, 301, 331, 300, 332
 C 296 331, 295, 329, 294, 329
 C 290 328, 289, 328, 288, 328
 L 286 328 L 285 328 L 285 329
 L 283 328
 L 280 326 C 279 326, 278, 326, 277, 327
 C 272 326, 271, 324, 269, 324
 C 250 320, 254, 322, 269, 325
 C 271 325, 272, 325, 274, 326
 C 278 326, 279, 328, 282, 327
 C 284 328, 285, 328, 286, 328
 L 288 329 L 289 329 L 291 330
 L 292 330 C 294 330, 295, 330, 297, 331
 C 301 332, 303, 332, 306, 333
 C 310 333, 311, 335, 313, 335
 C 317 335, 318, 335, 320, 336
 C 324 336, 324, 338, 327, 337
 C 330 338, 331, 338, 333, 339
 L 335 340 L 336 340
 L 337 340 C 339 341, 341, 340, 343, 341
 L 345 342 L 346 342
 L 347 343 C 350 342, 352, 344, 355, 343
 L 356 344 L 357 344 L 359 345
 L 360 345 C 362 346, 364, 345, 366, 346
 L 368 345 L 368 344
 L 369 342 C 368 338, 371, 336, 370, 332
 C 371 329, 373, 328, 372, 326
 C 373 321, 376, 319, 375, 315
 C 378 308, 380, 302, 381, 296
 C 382 293, 382, 292, 382, 291
 C 383 288, 385, 287, 385, 286
 L 386 284 L 386 283
 L 386 281 C 385 279, 385, 278, 385, 277
 L 384 275 L 383 275 L 383 276
 L 380 274 C 379 274, 378, 274, 377, 275
 L 375 274 L 374 274
 L 371 272 C 370 272, 369, 272, 368, 273
 L 365 271 L 364 271 L 364 272
 L 361 271 C 360 270, 358, 271, 357, 270
 C 351 269, 348, 267, 343, 268
 C 339 266, 337, 266, 334, 265
 C 329 266, 327, 262, 324, 262" fill="rgb(183,196,207)" />
<path  d="
 M 284 225 C 284 228, 280, 230, 282, 234
 L 281 236
 L 280 238 C 279 238, 279, 239, 279, 240
 C 278 245, 275, 248, 280, 249
 L 282 250
 L 282 251 L 283 252
 L 284 252
 L 285 250 C 287 251, 289, 250, 291, 251
 L 293 252
 L 293 254 C 291 254, 289, 254, 286, 253
 C 288 254, 290, 253, 292, 254
 L 294 254
 L 296 256
 L 296 254 L 297 254
 L 299 253 C 299 252, 300, 252, 301, 252
 C 306 254, 303, 256, 305, 256
 L 307 257
 L 308 255 C 310 256, 312, 255, 314, 256
 L 316 257
 L 316 259 C 314 259, 312, 259, 309, 258
 C 311 259, 313, 258, 315, 259
 L 317 260
 L 317 260 L 318 259
 L 319 257 C 321 258, 323, 257, 325, 258
 C 329 259, 326, 261, 328, 261
 L 330 262
 L 332 260 C 334 261, 338, 259, 340, 261
 L 342 263
 L 340 264 C 338 264, 336, 264, 333, 263
 C 336 264, 338, 264, 339, 263
 L 342 265 L 343 266
 L 343 265 L 343 264
 L 344 262 C 346 263, 348, 262, 350, 263
 L 351 263 L 352 263 L 354 264
 L 355 265 C 359 264, 361, 265, 363, 266
 L 366 267 L 366 268
 L 364 269 C 361 268, 359, 268, 356, 268
 C 359 269, 361, 269, 362, 268
 L 365 270
 L 367 271 L 365 270 L 366 269
 L 367 268 C 374 266, 378, 271, 385, 269
 C 388 271, 388, 273, 390, 273
 L 391 275
 L 391 275
 L 391 273 L 392 272
 L 394 271 C 395 272, 394, 274, 395, 275
 C 395 273, 395, 272, 395, 271
 C 397 268, 398, 269, 400, 269
 L 401 267 L 401 266
 L 400 265 L 399 264
 L 399 261 C 401 259, 404, 262, 404, 258
 L 406 258
 L 405 259 L 404 260
 L 402 259
 L 402 257 C 401 254, 404, 257, 404, 255
 C 407 256, 411, 254, 413, 255
 C 412 253, 410, 252, 407, 253
 L 406 252
 L 403 250 C 402 250, 401, 250, 400, 251
 C 396 249, 395, 250, 395, 249
 C 391 248, 389, 248, 386, 247
 L 385 247
 L 383 245 C 377 246, 372, 242, 367, 242
 C 362 242, 362, 240, 359, 241
 C 356 239, 355, 239, 354, 240
 L 352 239 L 351 239
 L 349 238 C 347 237, 346, 237, 345, 237
 C 341 237, 340, 235, 338, 235
 C 329 235, 324, 231, 317, 232
 L 316 231 L 315 231
 L 312 229 C 311 229, 310, 229, 309, 230
 C 304 229, 303, 228, 302, 227
 C 298 227, 296, 226, 295, 227
 L 293 226 L 292 226
 L 289 224 C 288 224, 287, 224, 286, 225" fill="rgb(43,47,56)" />
<path  d="
 M 473 170 C 475 169, 477, 170, 478, 169
 C 479 174, 479, 176, 478, 177
 L 478 180
 L 477 182 C 477 184, 477, 186, 476, 187
 L 476 190 L 476 191
 L 475 193 C 471 208, 467, 223, 463, 239
 C 460 241, 458, 240, 457, 241
 C 453 240, 452, 238, 450, 239
 C 447 237, 446, 237, 445, 237
 C 442 237, 441, 235, 440, 235
 C 435 235, 434, 233, 431, 234
 L 430 233
 L 428 232 C 426 231, 425, 231, 424, 231
 L 423 231
 L 424 229 C 425 229, 426, 227, 428, 228
 L 428 226 L 428 225 L 429 225
 L 430 223
 L 432 223
 L 433 224
 L 433 222 C 435 220, 436, 218, 438, 215
 L 440 214 L 441 214
 L 441 212 L 442 211 L 444 211
 L 444 208 L 446 209 L 447 208
 L 447 206
 L 448 204 C 452 200, 456, 194, 462, 190
 L 463 188
 L 464 186 L 465 185
 L 466 183 C 468 183, 469, 184, 470, 183
 L 470 182
 L 469 179 L 470 179 L 472 180
 L 473 180 L 471 179 L 472 178
 L 474 177 L 475 178
 L 475 177 C 476 176, 475, 174, 476, 173" fill="rgb(188,202,213)" />
<path  d="
 M 475 171 M 475 172 M 477 172
 L 477 173 C 476 175, 477, 177, 476, 178
 L 475 179 L 474 178
 L 473 179 L 474 180
 L 473 182 L 472 180 L 471 181
 L 471 182
 L 470 183 C 469 185, 466, 184, 464, 185
 L 464 188
 L 463 190 C 457 194, 452, 200, 449, 204
 L 448 206
 L 447 207 L 446 208 L 446 210
 L 445 211 C 444 212, 442, 212, 443, 214
 L 441 215
 L 439 215 C 437 218, 437, 221, 434, 222
 L 434 225 L 433 225
 L 431 224
 L 430 224 C 429 224, 429, 225, 429, 226
 C 426 228, 425, 229, 424, 230
 C 425 230, 426, 230, 427, 230
 L 430 232
 L 431 233 C 434 232, 435, 234, 437, 234
 C 441 234, 442, 236, 444, 235
 C 446 236, 447, 236, 448, 236
 C 452 237, 453, 239, 454, 239
 C 458 239, 459, 239, 461, 240
 C 466 223, 470, 208, 474, 193
 L 475 191 L 475 190
 L 476 188 C 476 186, 476, 184, 475, 181
 L 477 180
 L 477 177 C 477 176, 477, 175, 478, 174
 C 480 170, 477, 171, 477, 171" fill="rgb(187,202,213)" />
<path  d="
 M 251 340
 L 252 339 C 256 338, 257, 340, 261, 339
 L 263 341
 L 264 341 C 266 342, 268, 341, 270, 342
 C 273 342, 274, 344, 276, 343
 C 279 344, 280, 344, 282, 345
 L 284 346
 L 286 346 C 287 347, 288, 347, 290, 346
 L 292 348 L 293 348
 L 293 350 L 292 351
 L 290 352 C 288 351, 288, 353, 286, 352
 C 284 354, 288, 353, 286, 356
 C 283 357, 282, 356, 281, 354
 L 280 356 L 280 357
 L 278 358 L 277 359 L 277 361
 L 275 362 L 273 361 L 274 360
 L 272 361 L 272 362
 L 273 364 L 274 365
 L 273 367 C 272 366, 270, 364, 268, 364
 C 267 363, 267, 364, 267, 365
 L 265 366 L 264 366 L 264 367
 L 262 368 L 262 369
 L 260 370
 L 258 369 L 257 368
 L 255 368
 L 252 368 C 251 368, 250, 368, 249, 369
 C 241 364, 248, 357, 246, 352
 L 248 350
 L 249 348 C 248 345, 250, 344, 250, 342" fill="rgb(38,41,49)" />
<path  d="
 M 251 339 C 250 342, 250, 345, 249, 347
 L 249 350
 L 247 352 C 249 357, 242, 363, 248, 367
 C 250 367, 251, 367, 253, 368
 L 255 367
 L 257 367 L 258 368
 L 260 369
 L 261 368 L 262 367
 L 263 365 L 264 365 L 266 366
 L 266 364 L 266 363 L 267 363
 L 269 361 C 269 364, 271, 364, 273, 366
 L 273 365 L 272 364
 L 270 361 L 270 360 L 272 360
 L 274 359 L 275 359 L 275 361
 L 277 360 L 278 359
 L 278 356 L 278 355 L 279 355
 L 281 353 C 282 355, 283, 356, 285, 355
 L 285 354 L 284 355 L 284 354
 L 285 352
 L 287 352
 L 288 350 C 290 350, 291, 351, 292, 350
 C 291 347, 290, 348, 289, 348
 C 285 347, 284, 348, 284, 347
 C 280 345, 279, 345, 278, 346
 C 274 345, 273, 343, 272, 343
 C 268 343, 266, 342, 265, 343
 L 263 342
 L 261 340 C 258 341, 256, 339, 253, 340" fill="rgb(39,42,50)" />
<path  d="
 M 413 410 C 417 409, 420, 411, 422, 412
 L 424 412 L 424 413 L 425 415
 L 424 417 C 421 423, 420, 431, 417, 437
 C 416 440, 416, 441, 416, 442
 C 416 446, 414, 447, 415, 449
 C 414 452, 412, 453, 412, 454
 C 411 457, 411, 458, 411, 459
 L 411 462
 L 409 463 L 409 464 L 410 466
 L 409 468 L 409 469
 L 408 471 L 408 472
 L 406 473 C 407 478, 405, 480, 404, 484
 L 404 486 L 404 487
 L 403 489 L 401 489 L 402 491
 L 399 492 C 397 491, 394, 489, 391, 489
 C 387 489, 385, 489, 384, 486
 C 377 487, 374, 485, 370, 484
 C 362 482, 356, 481, 350, 479
 C 341 477, 335, 476, 329, 474
 C 321 472, 315, 472, 309, 470
 L 310 470 L 310 471 L 312 471
 L 313 472 C 319 470, 321, 475, 327, 473
 C 332 476, 337, 476, 341, 478
 C 345 478, 346, 478, 348, 479
 L 350 480 L 351 480
 L 352 481 C 358 481, 363, 484, 368, 484
 L 371 485 L 372 485
 L 374 485 C 376 486, 378, 487, 382, 486
 L 384 488
 L 385 488 C 387 488, 388, 488, 390, 489
 L 392 490 L 393 490
 L 394 491 C 397 490, 397, 492, 400, 491
 L 402 491 L 403 490
 L 403 487 L 403 486 L 404 486
 L 404 483 C 406 480, 406, 476, 408, 473
 L 409 471
 L 409 469 L 409 468
 L 409 465 C 409 464, 411, 463, 410, 461
 L 411 459 L 411 458 L 412 458
 L 413 456
 L 414 454 C 413 452, 413, 451, 413, 450
 C 414 447, 416, 446, 415, 444
 C 418 435, 420, 428, 423, 422
 C 423 418, 423, 417, 423, 416
 L 424 414 L 424 413 L 425 413
 L 422 411 L 421 412 L 421 411
 L 419 410 C 417 409, 416, 409, 415, 409" fill="rgb(93,103,110)" /></svg>